<!-- icons.svg -->
<svg xmlns="http://www.w3.org/2000/svg" style="display:none;">
  <!-- IMAGES FOUND -->
  <symbol id="ImagesFound" viewBox="0 0 24 24">
    <svg width="24" height="24" viewBox="0 0 29 29" fill="none" xmlns="http://www.w3.org/2000/svg">
    <path d="M22.6506 21.6482C22.023 23.0373 20.6254 24.0038 19.002 24.0038L9.00226 24.0039L14.0015 19.0047L15.2987 17.7074C16.2407 16.7655 17.7679 16.7655 18.7098 17.7074L22.6506 21.6482Z" fill="white" fill-opacity="0.38"/>
    <path d="M23.0037 17.7074V20.0022C23.0037 22.2122 21.2121 24.0038 19.002 24.0038M19.002 24.0038H8.99788M19.002 24.0038C20.6254 24.0038 22.023 23.0373 22.6506 21.6482L18.7098 17.7074C17.7679 16.7655 16.2407 16.7655 15.2987 17.7074L14.0015 19.0047M19.002 24.0038L9.00226 24.0039M8.99788 24.0038C6.78782 24.0038 4.99622 22.2122 4.99622 20.0022M8.99788 24.0038L9.00226 24.0039M4.99622 20.0022V15.6117M4.99622 20.0022V16.0019M11.4295 5.99634H8.99788C6.78782 5.99634 4.99622 7.78795 4.99622 9.998V15.6117M4.99622 16.0019L6.29192 14.7062C6.74425 14.2539 7.35776 13.9998 7.99747 13.9998C8.63716 13.9998 9.25067 14.2539 9.70301 14.7062L13.245 18.2482L14.0015 19.0047M4.99622 16.0019V15.6117M9.00226 24.0039L14.0015 19.0047" stroke="#CFD1D7" stroke-width="1.5" stroke-linecap="round" stroke-linejoin="round"/>
    <path fill-rule="evenodd" clip-rule="evenodd" d="M16.0001 6.9976C16.0001 3.68252 18.6875 0.995117 22.0025 0.995117C25.3176 0.995117 28.005 3.68252 28.005 6.9976C28.005 10.3127 25.3176 13.0001 22.0025 13.0001C18.6875 13.0001 16.0001 10.3127 16.0001 6.9976ZM21.9993 3.84256C22.3482 3.84256 22.631 4.12535 22.631 4.47418V6.36595H24.5258C24.8746 6.36595 25.1574 6.64874 25.1574 6.99757C25.1574 7.3464 24.8746 7.62919 24.5258 7.62919H22.631V9.52713C22.631 9.87596 22.3482 10.1587 21.9993 10.1587C21.6505 10.1587 21.3677 9.87596 21.3677 9.52713V7.62919H19.4729C19.124 7.62919 18.8412 7.3464 18.8412 6.99757C18.8412 6.64874 19.124 6.36595 19.4729 6.36595H21.3677V4.47418C21.3677 4.12535 21.6505 3.84256 21.9993 3.84256Z" fill="white"/>
    </svg>
  </symbol>
  
  <!-- CLOSE TABS -->
  <symbol id="CloseTabs" viewBox="0 0 24 24">
    <svg width="26" height="26" viewBox="0 0 26 26" fill="none" xmlns="http://www.w3.org/2000/svg"><path d="M22.0037 13.1472V17.0018C22.0037 19.7643 19.7642 22.0038 17.0016 22.0038H8.9983C6.23572 22.0038 3.99622 19.7643 3.99622 17.0018V8.99842C3.99622 6.23585 6.23572 3.99634 8.9983 3.99634H12.0948" stroke="#323232" stroke-width="1.5" stroke-linecap="round" stroke-linejoin="round"/><path d="M22.0037 13.1472V17.0018C22.0037 19.7643 19.7642 22.0038 17.0016 22.0038H8.9983C6.23572 22.0038 3.99622 19.7643 3.99622 17.0018V8.99842C3.99622 6.23585 6.23572 3.99634 8.9983 3.99634H12.0948" stroke="#CFD1D7" stroke-width="1.5" stroke-linecap="round" stroke-linejoin="round"/><path d="M13.9524 12.4019C15.0574 12.4019 15.9532 13.2977 15.9532 14.4027V17.4041H13.9524H8.30907H3.99622V12.4019H8.30907H13.9524Z" fill="#D9D9D9" fill-opacity="0.15"/><path d="M3.99622 17.4041C5.68049 17.4041 6.6248 17.4041 8.30907 17.4041M3.99622 17.4041V12.4019H8.30907H13.9524C15.0574 12.4019 15.9532 13.2977 15.9532 14.4027V17.4041M3.99622 17.4041H8.30907M15.9532 21.0622V17.4041M8.30907 17.4041H13.9524H15.9532" stroke="#323232" stroke-width="1.5" stroke-linecap="round" stroke-linejoin="round"/><path d="M3.99622 17.4041C5.68049 17.4041 6.6248 17.4041 8.30907 17.4041M3.99622 17.4041V12.4019H8.30907H13.9524C15.0574 12.4019 15.9532 13.2977 15.9532 14.4027V17.4041M3.99622 17.4041H8.30907M15.9532 21.0622V17.4041M8.30907 17.4041H13.9524H15.9532" stroke="#CFD1D7" stroke-width="1.5" stroke-linecap="round" stroke-linejoin="round"/><path d="M8.13409 14.8976C8.13109 14.8976 8.12909 14.8996 8.12909 14.9026C8.12909 14.9056 8.13109 14.9076 8.13409 14.9076C8.13709 14.9076 8.13909 14.9056 8.13909 14.9026C8.13909 14.8996 8.13709 14.8976 8.13409 14.8976" stroke="#CFD1D7" stroke-width="1.5" stroke-linecap="round" stroke-linejoin="round"/><path d="M10.6771 14.8976C10.6741 14.8976 10.6721 14.8996 10.6721 14.9026C10.6721 14.9056 10.6751 14.9076 10.6771 14.9076C10.6801 14.9076 10.6821 14.9056 10.6821 14.9026C10.6821 14.8996 10.6801 14.8976 10.6771 14.8976" stroke="#CFD1D7" stroke-width="1.5" stroke-linecap="round" stroke-linejoin="round"/><path d="M13.2161 14.8976C13.2131 14.8976 13.2111 14.8996 13.2111 14.9026C13.2111 14.9056 13.2131 14.9076 13.2161 14.9076C13.2191 14.9076 13.2211 14.9056 13.2211 14.9026C13.2211 14.8996 13.2191 14.8976 13.2161 14.8976" stroke="#CFD1D7" stroke-width="1.5" stroke-linecap="round" stroke-linejoin="round"/><path d="M17.6418 8.28193L23.8511 2.07275" stroke="white" stroke-width="1.5" stroke-linecap="round" stroke-linejoin="round"/><path d="M23.851 8.28198L17.6418 2.07267" stroke="white" stroke-width="1.5" stroke-linecap="round" stroke-linejoin="round"/></svg>
  </symbol>

<!-- URLS COPIED -->
  <symbol id="URLSCopied" viewBox="0 0 24 24">
    <svg width="24" height="24" viewBox="0 0 26 26" fill="none" xmlns="http://www.w3.org/2000/svg">
    <path fill-rule="evenodd" clip-rule="evenodd" d="M7.99829 3.99668L9.29883 2.37101C9.48891 2.13391 9.77603 1.99585 10.0802 1.99585H13.9208C14.2249 1.99585 14.512 2.13391 14.7021 2.37101L16.0016 3.99668V3.99668V4.9971C16.0016 5.54933 15.5534 5.99752 15.0012 5.99752H8.99871C8.44648 5.99752 7.99829 5.54933 7.99829 4.9971V3.99668V3.99668Z" stroke="#CFD1D7" stroke-width="1.5" stroke-linecap="round" stroke-linejoin="round"/>
    <path d="M20.0033 11.0441V5.99742C20.0033 4.89195 19.1079 3.99658 18.0025 3.99658H16.0016" stroke="#CFD1D7" stroke-width="1.5" stroke-linecap="round" stroke-linejoin="round"/>
    <path d="M7.99831 3.99658H5.99748C4.89202 3.99658 3.99664 4.89195 3.99664 5.99742V19.0028C3.99664 20.1083 4.89202 21.0037 5.99748 21.0037H10.8464" stroke="#CFD1D7" stroke-width="1.5" stroke-linecap="round" stroke-linejoin="round"/>
    <path d="M7.99829 10.9997H16.0016" stroke="#CFD1D7" stroke-width="1.5" stroke-linecap="round" stroke-linejoin="round"/>
    <path d="M7.99829 16.0017H9.99912" stroke="#CFD1D7" stroke-width="1.5" stroke-linecap="round" stroke-linejoin="round"/>
    <path fill-rule="evenodd" clip-rule="evenodd" d="M19.9975 13.9951C16.6825 13.9951 13.9951 16.6825 13.9951 19.9976C13.9951 23.3127 16.6825 26.0001 19.9975 26.0001C23.3126 26.0001 26 23.3127 26 19.9976C26 16.6825 23.3126 13.9951 19.9975 13.9951Z" fill="white"/>
    <path d="M17.1538 20.2307L18.1441 21.221L18.8941 21.971L22.841 18.0239" stroke="#323232" stroke-width="1.5" stroke-linecap="round" stroke-linejoin="round"/>
    </svg>
  </symbol>

  <!-- NO IMAGES FOUND -->
<symbol id="NoImagesFound" viewBox="0 0 24 24">
    <svg width="28" height="28" viewBox="0 0 28 28" fill="none" xmlns="http://www.w3.org/2000/svg">
    <path d="M22.6506 20.6482C22.023 22.0373 20.6254 23.0038 19.002 23.0038L9.00226 23.0039L14.0015 18.0047L15.2987 16.7074C16.2407 15.7655 17.7679 15.7655 18.7098 16.7074L22.6506 20.6482Z" fill="white" fill-opacity="0.38"/>
    <path d="M23.0037 14.6117V19.0022C23.0037 21.2122 21.2121 23.0038 19.002 23.0038M19.002 23.0038H8.99788M19.002 23.0038C20.6254 23.0038 22.023 22.0373 22.6506 20.6482L18.7098 16.7074C17.7679 15.7655 16.2407 15.7655 15.2987 16.7074L14.0015 18.0047M19.002 23.0038L9.00226 23.0039M8.99788 23.0038C6.78782 23.0038 4.99622 21.2122 4.99622 19.0022M8.99788 23.0038L9.00226 23.0039M4.99622 19.0022V14.6117M4.99622 19.0022V15.0019M14.0015 4.99634H8.99788C6.78782 4.99634 4.99622 6.78795 4.99622 8.998V14.6117M4.99622 15.0019L6.29192 13.7062C6.74425 13.2539 7.35776 12.9998 7.99747 12.9998C8.63716 12.9998 9.25067 13.2539 9.70301 13.7062L13.245 17.2482L14.0015 18.0047M4.99622 15.0019V14.6117M9.00226 23.0039L14.0015 18.0047" stroke="#CFD1D7" stroke-width="1.5" stroke-linecap="round" stroke-linejoin="round"/>
    <path d="M18.72 9.28193L24.9293 3.07275" stroke="white" stroke-width="1.5" stroke-linecap="round" stroke-linejoin="round"/>
    <path d="M24.9291 9.28198L18.72 3.07267" stroke="white" stroke-width="1.5" stroke-linecap="round" stroke-linejoin="round"/>
    </svg>
</symbol>

  <!-- Simple Check -->
<symbol id="check" viewBox="0 0 24 24">
<svg width="24" height="24" viewBox="0 0 24 24" fill="none" xmlns="http://www.w3.org/2000/svg">
<path d="M20 6.5L9 17.5L4 12.5" stroke="#323232" stroke-width="1.5" stroke-linecap="round" stroke-linejoin="round"/>
</svg>
</symbol>

</svg>
