<svg width="26" height="26" viewBox="0 0 26 26" fill="none" xmlns="http://www.w3.org/2000/svg">
<path d="M22.0037 13.1472V17.0018C22.0037 19.7643 19.7642 22.0038 17.0016 22.0038H8.9983C6.23572 22.0038 3.99622 19.7643 3.99622 17.0018V8.99842C3.99622 6.23585 6.23572 3.99634 8.9983 3.99634H12.0948" stroke="#323232" stroke-width="1.5" stroke-linecap="round" stroke-linejoin="round"/>
<path d="M22.0037 13.1472V17.0018C22.0037 19.7643 19.7642 22.0038 17.0016 22.0038H8.9983C6.23572 22.0038 3.99622 19.7643 3.99622 17.0018V8.99842C3.99622 6.23585 6.23572 3.99634 8.9983 3.99634H12.0948" stroke="#CFD1D7" stroke-width="1.5" stroke-linecap="round" stroke-linejoin="round"/>
<path d="M13.9524 12.4019C15.0574 12.4019 15.9532 13.2977 15.9532 14.4027V17.4041H13.9524H8.30907H3.99622V12.4019H8.30907H13.9524Z" fill="#D9D9D9" fill-opacity="0.15"/>
<path d="M3.99622 17.4041C5.68049 17.4041 6.6248 17.4041 8.30907 17.4041M3.99622 17.4041V12.4019H8.30907H13.9524C15.0574 12.4019 15.9532 13.2977 15.9532 14.4027V17.4041M3.99622 17.4041H8.30907M15.9532 21.0622V17.4041M8.30907 17.4041H13.9524H15.9532" stroke="#323232" stroke-width="1.5" stroke-linecap="round" stroke-linejoin="round"/>
<path d="M3.99622 17.4041C5.68049 17.4041 6.6248 17.4041 8.30907 17.4041M3.99622 17.4041V12.4019H8.30907H13.9524C15.0574 12.4019 15.9532 13.2977 15.9532 14.4027V17.4041M3.99622 17.4041H8.30907M15.9532 21.0622V17.4041M8.30907 17.4041H13.9524H15.9532" stroke="#CFD1D7" stroke-width="1.5" stroke-linecap="round" stroke-linejoin="round"/>
<path d="M8.13409 14.8976C8.13109 14.8976 8.12909 14.8996 8.12909 14.9026C8.12909 14.9056 8.13109 14.9076 8.13409 14.9076C8.13709 14.9076 8.13909 14.9056 8.13909 14.9026C8.13909 14.8996 8.13709 14.8976 8.13409 14.8976" stroke="#CFD1D7" stroke-width="1.5" stroke-linecap="round" stroke-linejoin="round"/>
<path d="M10.6771 14.8976C10.6741 14.8976 10.6721 14.8996 10.6721 14.9026C10.6721 14.9056 10.6751 14.9076 10.6771 14.9076C10.6801 14.9076 10.6821 14.9056 10.6821 14.9026C10.6821 14.8996 10.6801 14.8976 10.6771 14.8976" stroke="#CFD1D7" stroke-width="1.5" stroke-linecap="round" stroke-linejoin="round"/>
<path d="M13.2161 14.8976C13.2131 14.8976 13.2111 14.8996 13.2111 14.9026C13.2111 14.9056 13.2131 14.9076 13.2161 14.9076C13.2191 14.9076 13.2211 14.9056 13.2211 14.9026C13.2211 14.8996 13.2191 14.8976 13.2161 14.8976" stroke="#CFD1D7" stroke-width="1.5" stroke-linecap="round" stroke-linejoin="round"/>
<path d="M17.6418 8.28193L23.8511 2.07275" stroke="white" stroke-width="1.5" stroke-linecap="round" stroke-linejoin="round"/>
<path d="M23.851 8.28198L17.6418 2.07267" stroke="white" stroke-width="1.5" stroke-linecap="round" stroke-linejoin="round"/>
</svg>
