<svg width="29" height="29" viewBox="0 0 29 29" fill="none" xmlns="http://www.w3.org/2000/svg">
<path d="M22.6506 21.6482C22.023 23.0373 20.6254 24.0038 19.002 24.0038L9.00226 24.0039L14.0015 19.0047L15.2987 17.7074C16.2407 16.7655 17.7679 16.7655 18.7098 17.7074L22.6506 21.6482Z" fill="white" fill-opacity="0.38"/>
<path d="M23.0037 17.7074V20.0022C23.0037 22.2122 21.2121 24.0038 19.002 24.0038M19.002 24.0038H8.99788M19.002 24.0038C20.6254 24.0038 22.023 23.0373 22.6506 21.6482L18.7098 17.7074C17.7679 16.7655 16.2407 16.7655 15.2987 17.7074L14.0015 19.0047M19.002 24.0038L9.00226 24.0039M8.99788 24.0038C6.78782 24.0038 4.99622 22.2122 4.99622 20.0022M8.99788 24.0038L9.00226 24.0039M4.99622 20.0022V15.6117M4.99622 20.0022V16.0019M11.4295 5.99634H8.99788C6.78782 5.99634 4.99622 7.78795 4.99622 9.998V15.6117M4.99622 16.0019L6.29192 14.7062C6.74425 14.2539 7.35776 13.9998 7.99747 13.9998C8.63716 13.9998 9.25067 14.2539 9.70301 14.7062L13.245 18.2482L14.0015 19.0047M4.99622 16.0019V15.6117M9.00226 24.0039L14.0015 19.0047" stroke="#CFD1D7" stroke-width="1.5" stroke-linecap="round" stroke-linejoin="round"/>
<path fill-rule="evenodd" clip-rule="evenodd" d="M16.0001 6.9976C16.0001 3.68252 18.6875 0.995117 22.0025 0.995117C25.3176 0.995117 28.005 3.68252 28.005 6.9976C28.005 10.3127 25.3176 13.0001 22.0025 13.0001C18.6875 13.0001 16.0001 10.3127 16.0001 6.9976ZM21.9993 3.84256C22.3482 3.84256 22.631 4.12535 22.631 4.47418V6.36595H24.5258C24.8746 6.36595 25.1574 6.64874 25.1574 6.99757C25.1574 7.3464 24.8746 7.62919 24.5258 7.62919H22.631V9.52713C22.631 9.87596 22.3482 10.1587 21.9993 10.1587C21.6505 10.1587 21.3677 9.87596 21.3677 9.52713V7.62919H19.4729C19.124 7.62919 18.8412 7.3464 18.8412 6.99757C18.8412 6.64874 19.124 6.36595 19.4729 6.36595H21.3677V4.47418C21.3677 4.12535 21.6505 3.84256 21.9993 3.84256Z" fill="white"/>
</svg>
