<svg width="28" height="28" viewBox="0 0 28 28" fill="none" xmlns="http://www.w3.org/2000/svg">
<path d="M22.6506 20.6482C22.023 22.0373 20.6254 23.0038 19.002 23.0038L9.00226 23.0039L14.0015 18.0047L15.2987 16.7074C16.2407 15.7655 17.7679 15.7655 18.7098 16.7074L22.6506 20.6482Z" fill="white" fill-opacity="0.38"/>
<path d="M23.0037 14.6117V19.0022C23.0037 21.2122 21.2121 23.0038 19.002 23.0038M19.002 23.0038H8.99788M19.002 23.0038C20.6254 23.0038 22.023 22.0373 22.6506 20.6482L18.7098 16.7074C17.7679 15.7655 16.2407 15.7655 15.2987 16.7074L14.0015 18.0047M19.002 23.0038L9.00226 23.0039M8.99788 23.0038C6.78782 23.0038 4.99622 21.2122 4.99622 19.0022M8.99788 23.0038L9.00226 23.0039M4.99622 19.0022V14.6117M4.99622 19.0022V15.0019M14.0015 4.99634H8.99788C6.78782 4.99634 4.99622 6.78795 4.99622 8.998V14.6117M4.99622 15.0019L6.29192 13.7062C6.74425 13.2539 7.35776 12.9998 7.99747 12.9998C8.63716 12.9998 9.25067 13.2539 9.70301 13.7062L13.245 17.2482L14.0015 18.0047M4.99622 15.0019V14.6117M9.00226 23.0039L14.0015 18.0047" stroke="#CFD1D7" stroke-width="1.5" stroke-linecap="round" stroke-linejoin="round"/>
<path d="M16.4623 8.20832L18.2783 10.0243L19.6537 11.3997L25.8631 5.19057" stroke="white" stroke-width="1.5" stroke-linecap="round" stroke-linejoin="round"/>
</svg>
